<svg version="1.1" x="0px" y="0px" width="392px" height="125px"
	 viewBox="0 0 392 125" style="enable-background:new 0 0 392 125;" xml:space="preserve" xmlns="http://www.w3.org/2000/svg">
<style type="text/css">
	.st0{fill:#231F20;}
	.st1{fill:#FFFFFF;}
	.st2{fill:#929497;}
	.st3{fill:#EFC7AF;}
	.st4{fill:#204788;}
	.st5{fill:#FFC132;}
</style>

<g>
	<g>
		<path class="st0" d="M90.3,94.1c-2.1-15.5-11.5-32.5-28.2-37l-1.4-4.3c0.7-0.9,1.4-1.8,2.1-2.8c2.6-3.8,4.4-8.3,5.6-13.1
			c0.3,0.1,0.5,0.2,0.8,0.2c0.2,0,0.4,0,0.6,0c1.1,0,2.2-0.5,3.1-1.3c1-0.9,1.6-2.2,1.8-3.7c0.4-3.1-1.4-5.9-4-6.3
			c-0.4-0.1-0.7-0.1-1.1,0c0-0.5,0-1.1-0.1-1.6c0.5,0.3,0.8,0.4,0.9,0.5c0.4,0.2,0.8,0.2,1.2-0.1c0.4-0.2,0.6-0.6,0.6-1.1
			c0-9-4.9-16.8-12.2-20.9c-0.1,0-0.1-0.1-0.2-0.1c-3.4-1.9-7.4-3-11.6-3c-13.2,0-24,10.8-24,24c0,0.6,0.5,1.2,1.1,1.3
			c0,0,0.6,0.1,1.5,0.1c0,0.3,0,0.6,0,0.9c-0.4,0-0.7,0-1.1,0c-2.6,0.4-4.4,3.2-4,6.3c0.2,1.5,0.9,2.8,1.8,3.7
			c0.9,0.8,2,1.3,3.1,1.3c0.2,0,0.4,0,0.6,0c0.3,0,0.5-0.1,0.8-0.2c1.5,6.4,4.3,11.9,7.7,15.9L34.4,57c-8.7,2.4-16.3,8.3-21,16.4
			c-0.1,0-0.2-0.1-0.4-0.1C11.4,72.7,9.5,72,7.5,72C3,72,0.6,75.9,0.4,83.6c0,1.3,0.3,2.3,1,3c0.6,0.6,1.3,0.9,2.3,1.1
			c0,0,0.1,0,0.1,0c0.4,0.9,1.3,2.1,2.8,2.3c0.2,0.8,0.6,1.6,1.6,2c0.3,0.1,0.6,0.3,1,0.3c-0.2,0.4-0.3,0.8-0.4,1.1
			c-1.1,3.1,0.4,4.4,1.3,4.8c0.3,0.2,0.7,0.2,1,0.2c0.3,0,0.6-0.1,0.9-0.2l0.5,1c1.1,2.5,1.7,3.7,3.1,3.7c0.5,0,1-0.2,1.5-0.5
			l2.7,6.1l0.5,2.9c0,0,0,0.1,0.1,0.1l2.2,2.7c0.1,0.1,0.1,0.1,0.2,0.1c0,0,0.1,0,0.1,0l1.6-0.7c0.1,0,0.2-0.2,0.1-0.3l-0.6-3.4
			c0,0,0-0.1-0.1-0.1l-1.8-2.3l-2.8-6.1c0.6-0.3,1.2-0.6,1.4-1.3c0.3-0.9,0-1.8-0.8-3.5H67l-0.9,0.8c-0.3,0.2-0.4,0.5-0.4,0.9
			c-0.1,1.8-0.4,4.2-0.9,4.7c-0.2,0.2-0.6,0.8-0.4,1.6h-3.6H37h-4.3c-2.2,0-4.2,1.6-4.6,3.6l-2.3,12.2c-0.2,1.3,0.1,2.5,0.8,3.4
			c0.8,0.9,1.9,1.4,3.1,1.4h5h0h0h28h0h4.9c1.3,0,2.4-0.5,3.1-1.4c0.8-0.9,1.1-2.2,0.8-3.4l-0.7-3.6c0.2,0.2,0.4,0.3,0.6,0.5
			c0.5,0.3,0.9,0.4,1.2,0.4c0.2,0,0.4,0,0.6-0.1c1.1-0.3,1.7-1.4,2.3-2.5c0.2-0.3,0.3-0.6,0.5-0.9c0.3-0.5,0.9-1.3,1.4-2.1
			c0.6-0.1,2-0.3,2.7-0.6c0.4-0.2,0.7-0.4,1.1-0.8l0.6,0.2c0.3,0.1,0.6,0.1,0.9,0c5.4-1.8,8.6-6.1,8.9-11.8
			C92.1,98,91.4,96,90.3,94.1 M48.2,60.4l5.8,6c-1.5,2.9-3.7,6.2-5.8,7.5c-2.1-1.3-4.3-4.6-5.8-7.5L48.2,60.4z M39.3,66.1L36.4,59
			l0.1-0.4l0-0.1l1.2-3.6c2.5,2.4,5.2,4,7.8,4.7L39.3,66.1z M50.9,59.6c2.7-0.7,5.4-2.3,7.9-4.7l1.3,4l-2.9,7.2L50.9,59.6z
			 M70.4,28.3c1.2,0.2,2.1,1.7,1.8,3.4c-0.1,0.9-0.5,1.7-1.1,2.2c-0.5,0.5-1.1,0.7-1.6,0.6c-0.2,0-0.5-0.1-0.6-0.2
			c0.3-1.9,0.6-3.9,0.7-5.9C69.8,28.3,70.1,28.3,70.4,28.3 M67.1,26c0,0.2,0,0.4,0,0.5l-4.2,3.3c-0.9-2.7-3.5-4.6-6.5-4.6
			c-2.9,0-5.5,1.9-6.5,4.5h-3.4c-1-2.6-3.5-4.5-6.5-4.5c-3,0-5.6,1.9-6.5,4.6l-4.2-3.3c0-0.2,0-0.3,0-0.5c0-0.4,0-0.7,0-1.1
			c6.5-0.1,20.2-1.8,27.6-13.1c3.3,5.2,7.1,8.7,9.8,10.6C67,23.6,67.1,24.8,67.1,26 M60.8,32.1c0,2.4-2,4.4-4.4,4.4
			c-2.4,0-4.4-2-4.4-4.4c0-2.4,2-4.4,4.4-4.4C58.8,27.7,60.8,29.7,60.8,32.1 M44.4,32.1c0,2.4-2,4.4-4.4,4.4c-2.4,0-4.4-2-4.4-4.4
			c0-2.4,2-4.4,4.4-4.4C42.5,27.7,44.4,29.7,44.4,32.1 M60,5.5c5.3,3.5,8.9,9.1,9.6,15.7c-2.6-1.7-7.5-5.5-11.2-12
			C59.1,7.9,59.6,6.5,60,5.5 M26.8,22.3C27.4,11,36.8,2,48.2,2c3.4,0,6.7,0.8,9.5,2.2c-0.4,1.1-1,2.8-1.9,4.4c0,0,0,0,0,0
			c-0.1,0.2-0.2,0.3-0.3,0.5c-0.1,0.1-0.1,0.2-0.2,0.3c-6.8,11.6-20.9,12.9-26.8,12.9C27.8,22.4,27.2,22.4,26.8,22.3 M26.9,34.6
			c-0.6,0.1-1.1-0.1-1.6-0.6c-0.6-0.5-1-1.3-1.1-2.2c-0.2-1.7,0.6-3.3,1.8-3.4c0.3,0,0.6,0,0.8,0.1c0.1,2,0.3,4,0.7,5.9
			C27.4,34.5,27.2,34.5,26.9,34.6 M30.4,35.5c-0.4-1.8-0.7-3.7-0.9-5.7l3.7,2.9c0.3,3.5,3.3,6.3,6.9,6.3c3.8,0,6.9-3.1,6.9-6.8h2.5
			c0,3.8,3.1,6.8,6.9,6.8c3.6,0,6.5-2.8,6.9-6.3l3.7-2.9c-0.2,1.9-0.5,3.9-0.9,5.7c-1,4.8-2.9,9.2-5.4,13c-3.7,5.5-8.3,8.8-12.5,8.8
			C41.3,57.4,33.2,48.2,30.4,35.5 M11.2,96c-0.2-0.1-0.5-0.4,0-1.7c0.1-0.4,0.3-0.9,0.5-1.3c0-0.1,0.1-0.1,0.1-0.2l4.1-10.2
			c0.3-0.6-0.1-1.4-0.7-1.6c-0.6-0.3-1.4,0.1-1.6,0.7L10.2,90c-0.3,0-0.6-0.1-0.9-0.2C9,89.6,9.1,89,9.1,88.9l2.7-8
			c0.2-0.7-0.1-1.4-0.8-1.6c-0.7-0.2-1.4,0.1-1.6,0.8l-2.5,7.4c-0.3-0.1-0.7-0.7-0.9-1.1c0.2-1.2,1-4.9,1.5-7.1
			c0.2-0.7-0.3-1.4-1-1.5c-0.7-0.2-1.4,0.3-1.5,1c-0.4,1.9-1,4.8-1.3,6.4c-0.2-0.1-0.3-0.1-0.4-0.2C3.1,84.6,3,84.2,3,83.6
			c0.2-9.1,3.5-9.1,4.6-9.1c1.5,0,3.2,0.7,4.6,1.2c0.2,0.1,0.5,0.2,0.7,0.3c2.4,0.9,5.1,2.5,5.9,4.4c0.3,0.7,0.3,1.5-0.1,2.2
			c-2.1,4.4-4.2,8.4-5.9,11.6C12,95.4,11.4,95.9,11.2,96 M17,99.8c-0.3,0.2-0.6,0.3-0.8,0.4c-0.1,0.1-0.3,0.1-0.4,0.2
			c-0.2-0.4-0.6-1.3-1-2.1l-0.7-1.7c0.3-0.4,0.6-0.9,0.8-1.3c0.3-0.6,0.6-1.2,1-1.8l1.6,3.6c0,0,0,0,0,0c0.2,0.4,0.7,1.5,0.9,2
			c-0.1,0-0.2,0.1-0.3,0.1C17.8,99.5,17.4,99.6,17,99.8 M18.9,94.2l-1.6-3.5c1.1-2.2,2.3-4.6,3.5-7.1c0.7-1.4,0.7-2.9,0.2-4.3
			c-0.4-0.9-1.6-3.1-5.3-4.9c4.2-7.1,10.8-12.4,18.3-14.7l3.6,9.1c0.2,0.4,0.5,0.7,0.9,0.8c0.1,0,0.2,0,0.2,0c0.3,0,0.7-0.1,0.9-0.4
			l0.8-0.9c3.2,5.8,6,7.7,7.1,8.2c0.2,0.1,0.3,0.1,0.5,0.1c0.2,0,0.4,0,0.5-0.1c1.1-0.5,3.9-2.3,7.1-8.2l0.8,0.9
			c0.2,0.2,0.6,0.4,0.9,0.4c0.1,0,0.2,0,0.2,0c0.4-0.1,0.8-0.4,0.9-0.8l3.6-9.1C75.9,63.9,84,76.8,87,89.8c-1.5-1.2-2.8-1.2-3.6-1
			c-6.4,1.5-11.5,3.6-11.7,3.7c-0.1,0.1-0.2,0.1-0.3,0.2l-1.6,1.4H18.9z M33.8,122.8h-3.9c-0.5,0-0.9-0.2-1.2-0.5
			c-0.3-0.3-0.4-0.8-0.3-1.3l2.3-12.2c0.2-0.8,1.1-1.5,2.1-1.5h2.8L33.8,122.8z M36.3,122.8l1.8-15.6h21.5l1.8,15.6H36.3z
			 M68.9,122.3c-0.3,0.3-0.7,0.5-1.2,0.5H64l-1.8-15.6h2.7c1,0,1.9,0.7,2.1,1.5l2.3,12.2C69.3,121.5,69.2,121.9,68.9,122.3
			 M70.5,113.8l-1-5.6c-0.2-0.9-0.7-1.7-1.4-2.4c1-0.2,2.1-1,3.1-2.9c0.5-0.9,0.8-1.8,1-2.4c1.6-0.8,3.2-1.2,3.7-1.1
			c0,0.3,0.1,1.2-1.1,4.3c-0.6,1.6-1.4,3.2-2.1,4.6C71.7,110.5,70.8,112.3,70.5,113.8 M89.5,99.1c-0.3,5-3.1,7.5-5.5,8.8
			c1.1-1.6,2.1-3.3,2.4-3.8c0.3-0.6,0.1-1.4-0.5-1.7c-0.6-0.3-1.4-0.1-1.7,0.5c-1.6,3-3.2,5-4.2,5.9l3.8-7.6
			c0.3-0.6,0.1-1.4-0.6-1.7c-0.6-0.3-1.4-0.1-1.7,0.6l-3.9,7.7c-0.4,0.6-2.6,3.8-3.5,5.1c-0.2,0.4-0.4,0.7-0.6,1.1
			c-0.2,0.3-0.5,0.9-0.7,1.1c0-0.2,0-0.6,0.1-1.1c0.3-1.1,1-2.6,1.9-4.4c0.7-1.4,1.5-3.1,2.2-4.8c1.4-3.5,1.7-5.5,0.9-6.6
			c-1.6-2.5-6.2-0.3-7.5,0.5c-0.3,0.2-0.5,0.4-0.6,0.8c-0.7,2.4-1.8,3.8-2.4,4c0.5-1.4,0.7-3.3,0.8-4.4l4.7-4.3
			c1-0.4,5.6-2.3,11.1-3.5c0.5-0.1,1.2,0.3,1.6,0.7C87.7,93.8,89.5,97.9,89.5,99.1"/>
		<path class="st0" d="M59.1,20.9h-5.5c-0.7,0-1.3,0.6-1.3,1.3c0,0.7,0.6,1.3,1.3,1.3h5.5c0.7,0,1.3-0.6,1.3-1.3
			C60.4,21.4,59.8,20.9,59.1,20.9"/>
		<path class="st0" d="M55.3,33.1c-0.7,0-1.3,0.6-1.3,1.3c0,0.7,0.6,1.3,1.3,1.3c0.7,0,1.3-0.6,1.3-1.3
			C56.6,33.7,56.1,33.1,55.3,33.1"/>
		<path class="st0" d="M46,52h3.4c3.4,0,6-2.4,6.4-4.5c0.1-0.7-0.3-1.4-1-1.5c-0.7-0.1-1.3,0.3-1.5,1c-0.1,0.3-0.2,0.6-0.5,1
			c-0.6,0.8-1.8,1.5-3.4,1.5H49H46c-0.7,0-1.3,0.6-1.3,1.3C44.7,51.4,45.3,52,46,52"/>
		<path class="st0" d="M46,43.4h4.5c0.7,0,1.3-0.6,1.3-1.3c0-0.7-0.6-1.3-1.3-1.3H46c-0.7,0-1.3,0.6-1.3,1.3
			C44.7,42.9,45.3,43.4,46,43.4"/>
		<path class="st0" d="M39.7,34.4c0,0.7,0.6,1.3,1.3,1.3c0.7,0,1.3-0.6,1.3-1.3c0-0.7-0.6-1.3-1.3-1.3
			C40.3,33.1,39.7,33.7,39.7,34.4"/>
		<path class="st0" d="M32.4,113.1c-0.7,0-1.4,0.5-1.5,1.1c-0.1,0.6,0.4,1.1,1.1,1.1c0.7,0,1.4-0.5,1.5-1.1
			C33.6,113.6,33.1,113.1,32.4,113.1"/>
		<polygon class="st1" points="59.6,107.2 61.5,122.8 36.3,122.8 38.1,107.2 		"/>
		<path class="st2" d="M64.9,107.2c1,0,1.9,0.7,2.1,1.5l2.3,12.2c0.1,0.5,0,1-0.3,1.3c-0.3,0.3-0.7,0.5-1.2,0.5H64l-1.8-15.6H64.9z"
			/>
		<path class="st2" d="M35.6,107.2l-1.8,15.6h-3.9c-0.5,0-0.9-0.2-1.2-0.5c-0.3-0.3-0.4-0.8-0.3-1.3l2.3-12.2
			c0.2-0.8,1.1-1.5,2.1-1.5H35.6z M33.5,114.3c0.1-0.6-0.4-1.1-1.1-1.1c-0.7,0-1.4,0.5-1.5,1.1c-0.1,0.6,0.4,1.1,1.1,1.1
			C32.8,115.4,33.4,114.9,33.5,114.3"/>
		<path class="st1" d="M37.8,54.9c2.5,2.4,5.2,4,7.8,4.7l-6.3,6.5L36.4,59l0.1-0.4l0-0.1L37.8,54.9z"/>
		<path class="st1" d="M58.7,54.9l1.3,4l-2.9,7.2l-6.3-6.5C53.5,58.9,56.2,57.3,58.7,54.9"/>
		<path class="st3" d="M27.6,34.3c-0.2,0.1-0.4,0.2-0.6,0.2c-0.5,0.1-1.1-0.1-1.6-0.6c-0.6-0.5-1-1.3-1.1-2.2
			c-0.2-1.7,0.6-3.3,1.8-3.4c0.3,0,0.6,0,0.8,0.1C27,30.4,27.2,32.4,27.6,34.3"/>
		<path class="st3" d="M69.6,28.4c0.2-0.1,0.5-0.1,0.8-0.1c1.2,0.2,2.1,1.7,1.8,3.4c-0.1,0.9-0.5,1.7-1.1,2.2
			c-0.5,0.5-1.1,0.7-1.6,0.6c-0.2,0-0.5-0.1-0.6-0.2C69.2,32.4,69.5,30.4,69.6,28.4"/>
		<path class="st1" d="M54,66.5c-1.5,2.9-3.7,6.2-5.8,7.5c-2.1-1.3-4.3-4.6-5.8-7.5l5.8-6L54,66.5z"/>
		<path class="st4" d="M48.2,76.7c0.2,0,0.4,0,0.5-0.1c1.1-0.5,3.9-2.3,7.1-8.2l0.8,0.9c0.2,0.2,0.6,0.4,0.9,0.4c0.1,0,0.2,0,0.2,0
			c0.4-0.1,0.8-0.4,0.9-0.8l3.6-9.1C75.9,63.9,84,76.8,87,89.8c-1.5-1.2-2.8-1.2-3.6-1c-6.4,1.5-11.5,3.6-11.7,3.7
			c-0.1,0.1-0.2,0.1-0.3,0.2l-1.6,1.4H18.9l-1.6-3.5c1.1-2.2,2.3-4.6,3.5-7.1c0.7-1.4,0.7-2.9,0.2-4.3c-0.4-0.9-1.6-3.1-5.3-4.9
			c4.2-7.1,10.8-12.4,18.3-14.7l3.6,9.1c0.2,0.4,0.5,0.7,0.9,0.8c0.1,0,0.2,0,0.2,0c0.3,0,0.7-0.1,0.9-0.4l0.8-0.9
			c3.2,5.8,6,7.7,7.1,8.2C47.9,76.6,48,76.7,48.2,76.7"/>
		<path class="st3" d="M73,114c0.3-1.1,1-2.6,1.9-4.4c0.7-1.4,1.5-3.1,2.2-4.8c1.4-3.5,1.7-5.5,0.9-6.6c-1.6-2.5-6.1-0.3-7.5,0.5
			c-0.3,0.2-0.5,0.4-0.6,0.8c-0.7,2.4-1.8,3.8-2.4,4c0.5-1.4,0.7-3.3,0.8-4.4l4.7-4.3c1-0.4,5.6-2.3,11.1-3.5
			c0.5-0.1,1.2,0.3,1.6,0.7c2.2,1.8,4,6,3.9,7.2c-0.3,5-3.1,7.5-5.5,8.8c1.1-1.6,2.1-3.3,2.4-3.8c0.3-0.6,0.1-1.4-0.5-1.7
			c-0.6-0.3-1.4-0.1-1.7,0.5c-1.7,3-3.2,5-4.2,5.9l3.8-7.6c0.3-0.6,0.1-1.4-0.6-1.7c-0.6-0.3-1.4-0.1-1.7,0.6l-3.9,7.7
			c-0.4,0.6-2.6,3.8-3.5,5.1c-0.2,0.4-0.4,0.7-0.6,1.1c-0.2,0.3-0.5,0.9-0.7,1.1C72.8,114.9,72.9,114.5,73,114"/>
		<path class="st3" d="M56.9,11.8c3.3,5.2,7.1,8.7,9.8,10.6c0.2,1.2,0.4,2.4,0.4,3.6c0,0.2,0,0.4,0,0.5l-4.2,3.3
			c-0.9-2.7-3.5-4.6-6.5-4.6c-2.9,0-5.5,1.9-6.5,4.5h-3.4c-1-2.6-3.5-4.5-6.5-4.5c-3,0-5.6,1.9-6.5,4.6l-4.2-3.3c0-0.2,0-0.3,0-0.5
			c0-0.4,0-0.7,0-1.1C35.9,24.8,49.6,23.1,56.9,11.8 M53.6,23.4h5.5c0.7,0,1.3-0.6,1.3-1.3c0-0.7-0.6-1.3-1.3-1.3h-5.5
			c-0.7,0-1.3,0.6-1.3,1.3C52.4,22.8,52.9,23.4,53.6,23.4"/>
		<path class="st5" d="M60,5.5c5.3,3.5,8.9,9.1,9.6,15.7c-2.6-1.7-7.5-5.5-11.2-12C59.1,7.9,59.6,6.5,60,5.5"/>
		<path class="st3" d="M54.1,34.4c0,0.7,0.6,1.3,1.3,1.3c0.7,0,1.3-0.6,1.3-1.3c0-0.7-0.6-1.3-1.3-1.3
			C54.6,33.1,54.1,33.7,54.1,34.4 M56.4,36.5c-2.4,0-4.4-2-4.4-4.4c0-2.4,2-4.4,4.4-4.4c2.4,0,4.4,2,4.4,4.4
			C60.8,34.5,58.8,36.5,56.4,36.5"/>
		<path class="st5" d="M48.2,2c3.4,0,6.7,0.8,9.5,2.2c-0.4,1.1-1,2.8-1.9,4.4c0,0,0,0,0,0c-0.1,0.2-0.2,0.3-0.3,0.5
			c-0.1,0.1-0.1,0.2-0.2,0.3c-6.8,11.6-20.9,12.9-26.8,12.9c-0.7,0-1.3,0-1.8,0C27.4,11,36.8,2,48.2,2"/>
		<path class="st3" d="M63.2,32.8C62.9,36.3,60,39,56.4,39c-3.8,0-6.9-3.1-6.9-6.8H47c0,3.8-3.1,6.8-6.9,6.8c-3.6,0-6.5-2.8-6.9-6.3
			l-3.7-2.9c0.2,1.9,0.5,3.8,0.9,5.7c2.8,12.7,10.9,21.8,17.8,21.8c4.1,0,8.8-3.3,12.5-8.8c2.5-3.8,4.3-8.2,5.4-13
			c0.4-1.9,0.7-3.8,0.9-5.7L63.2,32.8z M46,40.9h4.5c0.7,0,1.3,0.6,1.3,1.3c0,0.7-0.6,1.3-1.3,1.3H46c-0.7,0-1.3-0.6-1.3-1.3
			C44.7,41.5,45.3,40.9,46,40.9 M55.8,47.4c-0.4,2.2-3,4.5-6.4,4.5H46c-0.7,0-1.3-0.6-1.3-1.3c0-0.7,0.6-1.3,1.3-1.3H49h0.3
			c1.6,0,2.8-0.8,3.4-1.5c0.3-0.3,0.5-0.7,0.5-1c0.1-0.7,0.8-1.1,1.5-1C55.5,46.1,55.9,46.8,55.8,47.4"/>
		<path class="st3" d="M39.7,34.4c0,0.7,0.6,1.3,1.3,1.3c0.7,0,1.3-0.6,1.3-1.3c0-0.7-0.6-1.3-1.3-1.3
			C40.3,33.1,39.7,33.7,39.7,34.4 M40.1,36.5c-2.4,0-4.4-2-4.4-4.4c0-2.4,2-4.4,4.4-4.4c2.4,0,4.4,2,4.4,4.4
			C44.4,34.5,42.5,36.5,40.1,36.5"/>
		<path class="st3" d="M3.3,84.8C3.1,84.6,3,84.2,3,83.6c0.2-9.1,3.5-9.1,4.6-9.1c1.5,0,3.2,0.7,4.6,1.2c0.2,0.1,0.5,0.2,0.7,0.3
			c2.3,0.9,5.1,2.5,5.9,4.4c0.3,0.7,0.3,1.5-0.1,2.2c-2.1,4.4-4.2,8.4-5.9,11.6c-0.6,1.2-1.2,1.7-1.5,1.8c-0.2-0.1-0.5-0.4,0-1.7
			c0.1-0.4,0.3-0.9,0.5-1.3c0-0.1,0.1-0.1,0.1-0.2l4.1-10.2c0.3-0.6-0.1-1.4-0.7-1.6c-0.6-0.3-1.4,0.1-1.6,0.7L10.2,90
			c-0.3,0-0.6-0.1-0.9-0.2C9,89.6,9.1,89,9.1,88.9l2.7-8c0.2-0.7-0.1-1.4-0.8-1.6c-0.7-0.2-1.4,0.1-1.6,0.8l-2.5,7.4
			c-0.3-0.1-0.7-0.7-0.9-1.1c0.2-1.2,1-4.9,1.5-7.1c0.2-0.7-0.3-1.4-1-1.5c-0.7-0.2-1.4,0.3-1.5,1c-0.4,1.9-1,4.8-1.3,6.4
			C3.5,85,3.4,84.9,3.3,84.8"/>
		<path class="st5" d="M16.2,100.3c-0.1,0.1-0.2,0.1-0.4,0.2c-0.2-0.4-0.6-1.3-1-2.1l-0.7-1.7c0.3-0.4,0.6-0.9,0.8-1.3
			c0.3-0.6,0.6-1.2,1-1.8l1.6,3.6c0,0,0,0,0,0c0.2,0.4,0.7,1.5,0.9,2c-0.1,0-0.2,0.1-0.3,0.1c-0.3,0.1-0.6,0.3-1.1,0.5
			C16.7,100,16.4,100.1,16.2,100.3"/>
	</g>
	<path class="st4" d="M120,43.1h9.6c4.3,0,8,1.5,11.1,4.6c3.1,3.1,4.6,6.8,4.6,11.1c0,4.3-1.5,8-4.6,11.1c-3.1,3.1-6.8,4.6-11.1,4.6
		h-7.2v14.5c0,0.7-0.2,1.2-0.7,1.7c-0.5,0.5-1,0.7-1.7,0.7c-0.7,0-1.2-0.2-1.7-0.7c-0.5-0.5-0.7-1-0.7-1.7V45.6
		c0-0.7,0.2-1.2,0.7-1.7C118.7,43.4,119.3,43.1,120,43.1 M122.4,48v21.7h7.2c3,0,5.5-1.1,7.7-3.2c2.1-2.1,3.2-4.7,3.2-7.7
		c0-3-1.1-5.5-3.2-7.7c-2.1-2.1-4.7-3.2-7.7-3.2H122.4z"/>
	<path class="st4" d="M173.4,83.1c0.7,0,1.2,0.2,1.7,0.7c0.5,0.5,0.7,1,0.7,1.7c0,0.7-0.2,1.2-0.7,1.7c-3.1,2.7-6.8,4.1-11,4.1
		c-4.7,0-8.6-1.6-11.9-4.9c-3.3-3.3-4.9-7.3-4.9-11.9c0-4.7,1.6-8.6,4.9-11.9c3.3-3.3,7.3-4.9,11.9-4.9c4.7,0,8.6,1.6,11.9,4.9
		c3.3,3.3,4.9,7.3,4.9,11.9c0,0.7-0.2,1.2-0.7,1.7c-0.5,0.5-1,0.7-1.7,0.7h-26.3c0.4,2.3,1.5,4.3,3.3,6.1c2.4,2.3,5.2,3.5,8.5,3.5
		c3,0,5.6-1,7.8-2.9C172.3,83.3,172.8,83.1,173.4,83.1 M175.9,72.1c-0.4-2.3-1.5-4.3-3.3-6.1c-2.4-2.4-5.2-3.5-8.5-3.5
		c-3.3,0-6.2,1.2-8.5,3.5c-1.8,1.8-2.9,3.8-3.3,6.1H175.9z"/>
	<path class="st4" d="M262.2,60c0-0.7,0.2-1.2,0.7-1.7c0.5-0.5,1-0.7,1.7-0.7s1.2,0.2,1.7,0.7c0.5,0.5,0.7,1,0.7,1.7v2
		c3-2.9,6.6-4.4,10.8-4.4c4.3,0,8,1.5,11.1,4.6c3.1,3.1,4.6,6.8,4.6,11.1v15.7c0,0.7-0.2,1.2-0.7,1.7c-0.5,0.5-1,0.7-1.7,0.7
		c-0.7,0-1.2-0.2-1.7-0.7c-0.5-0.5-0.7-1-0.7-1.7V73.3c0-3-1.1-5.5-3.2-7.7c-2.1-2.1-4.7-3.2-7.7-3.2s-5.5,1.1-7.7,3.2
		c-2.1,2.1-3.2,4.7-3.2,7.7v15.7c0,0.7-0.2,1.2-0.7,1.7c-0.5,0.5-1,0.7-1.7,0.7s-1.2-0.2-1.7-0.7c-0.5-0.5-0.7-1-0.7-1.7V60z"/>
	<path class="st4" d="M313.1,86.5c0.7,0,1.2,0.2,1.7,0.7c0.5,0.5,0.7,1,0.7,1.7c0,0.7-0.2,1.2-0.7,1.7c-0.5,0.5-1,0.7-1.7,0.7
		c-8,0-12-4-12-12V62.4h-2.4c-0.7,0-1.2-0.2-1.7-0.7c-0.5-0.5-0.7-1-0.7-1.7c0-0.7,0.2-1.2,0.7-1.7c0.5-0.5,1-0.7,1.7-0.7h2.4v-12
		c0-0.7,0.2-1.2,0.7-1.7c0.5-0.5,1-0.7,1.7-0.7c0.7,0,1.2,0.2,1.7,0.7c0.5,0.5,0.7,1,0.7,1.7v12h4.8c0.7,0,1.2,0.2,1.7,0.7
		c0.5,0.5,0.7,1,0.7,1.7c0,0.7-0.2,1.2-0.7,1.7c-0.5,0.5-1,0.7-1.7,0.7h-4.8v16.9C305.9,84.1,308.3,86.5,313.1,86.5"/>
	<path class="st5" d="M326.8,87.7c0,1-0.4,1.9-1.1,2.6c-0.7,0.7-1.6,1.1-2.6,1.1c-1,0-1.9-0.4-2.6-1.1c-0.7-0.7-1.1-1.6-1.1-2.6
		c0-1,0.4-1.9,1.1-2.6c0.7-0.7,1.6-1.1,2.6-1.1c1,0,1.9,0.4,2.6,1.1C326.5,85.9,326.8,86.7,326.8,87.7"/>
	<path class="st4" d="M332.3,60c0-0.7,0.2-1.2,0.7-1.7c0.5-0.5,1-0.7,1.7-0.7c0.7,0,1.2,0.2,1.7,0.7c0.5,0.5,0.7,1,0.7,1.7v2.7
		c3.4-3.4,7.4-5.1,12-5.1c2.4,0,4.5,0.4,6.5,1.2c0.4,0.1,0.7,0.4,1,0.6c0.5,0.5,0.7,1.1,0.7,1.7c0,0.7-0.2,1.2-0.7,1.7
		c-0.5,0.5-1,0.7-1.7,0.7c-0.4,0-0.7-0.1-1.1-0.2c-1.4-0.6-3-0.9-4.7-0.9c-3.3,0-6.2,1.2-8.5,3.5c-2.3,2.3-3.5,5.2-3.5,8.5v14.5
		c0,0.7-0.2,1.2-0.7,1.7c-0.5,0.5-1,0.7-1.7,0.7c-0.7,0-1.2-0.2-1.7-0.7c-0.5-0.5-0.7-1-0.7-1.7V60z"/>
	<path class="st4" d="M392,88.9c0,0.7-0.2,1.2-0.7,1.7c-0.5,0.5-1,0.7-1.7,0.7c-0.7,0-1.2-0.2-1.7-0.7c-0.5-0.5-0.7-1-0.7-1.7v-2
		c-3,2.9-6.6,4.4-10.8,4.4c-4.3,0-8-1.5-11.1-4.6c-3.1-3.1-4.6-6.8-4.6-11.1V60c0-0.7,0.2-1.2,0.7-1.7c0.5-0.5,1-0.7,1.7-0.7
		c0.7,0,1.2,0.2,1.7,0.7c0.5,0.5,0.7,1,0.7,1.7v15.7c0,3,1.1,5.5,3.2,7.7c2.1,2.1,4.7,3.2,7.7,3.2c3,0,5.5-1.1,7.7-3.2
		c2.1-2.1,3.2-4.7,3.2-7.7V60c0-0.7,0.2-1.2,0.7-1.7c0.5-0.5,1-0.7,1.7-0.7c0.7,0,1.2,0.2,1.7,0.7c0.5,0.5,0.7,1,0.7,1.7V88.9z"/>
	<path class="st4" d="M218.4,45.5c0-0.7-0.2-1.2-0.7-1.7c-0.5-0.5-1-0.7-1.7-0.7c-0.7,0-1.2,0.2-1.7,0.7c-0.5,0.5-0.7,1-0.7,1.7
		v17.2c0,0-0.1-0.1-0.1-0.1c-3.3-3.3-7.3-4.9-11.9-4.9c-4.7,0-8.6,1.6-11.9,4.9c-3.3,3.3-4.9,7.3-4.9,11.9c0,4.7,1.6,8.6,4.9,11.9
		c3.3,3.3,7.3,4.9,11.9,4.9c4.7,0,8.6-1.6,11.9-4.9c0,0,0.1-0.1,0.1-0.1v0v2.7c0,0.7,0.2,1.2,0.7,1.7c0.5,0.5,1,0.7,1.7,0.7
		c0.7,0,1.2-0.2,1.7-0.7c0.5-0.5,0.7-1,0.7-1.7V74.5V45.5z M210.1,83c-2.3,2.3-5.2,3.5-8.5,3.5c-3.3,0-6.2-1.2-8.5-3.5
		c-2.4-2.3-3.5-5.2-3.5-8.5c0-3.3,1.2-6.2,3.5-8.5c2.3-2.3,5.2-3.5,8.5-3.5c3.3,0,6.2,1.2,8.5,3.5c2.3,2.3,3.5,5.2,3.5,8.5
		C213.6,77.8,212.4,80.6,210.1,83"/>
	<path class="st4" d="M251.7,62.7c0,0-0.1-0.1-0.1-0.1c-3.3-3.3-7.3-4.9-11.9-4.9c-4.7,0-8.6,1.6-11.9,4.9
		c-3.3,3.3-4.9,7.3-4.9,11.9c0,4.7,1.6,8.6,4.9,11.9c3.3,3.3,7.3,4.9,11.9,4.9c4.7,0,8.7-1.7,12-5.1v2.7c0,0.7,0.2,1.2,0.7,1.7
		c0.5,0.5,1,0.7,1.7,0.7c0.7,0,1.2-0.2,1.7-0.7c0.5-0.5,0.7-1,0.7-1.7V74.5C256.5,69.9,254.9,65.9,251.7,62.7 M248.2,83
		c-2.3,2.3-5.2,3.5-8.5,3.5c-3.3,0-6.2-1.2-8.5-3.5c-2.4-2.3-3.5-5.2-3.5-8.5c0-3.3,1.2-6.2,3.5-8.5c2.4-2.3,5.2-3.5,8.5-3.5
		c3.3,0,6.2,1.2,8.5,3.5c2.3,2.3,3.5,5.2,3.5,8.5C251.7,77.8,250.5,80.6,248.2,83"/>
</g>
</svg>
